<svg version="1.1" id="Vrstva_1" xmlns="http://www.w3.org/2000/svg" x="0" y="0" viewBox="0 0 929 573" xml:space="preserve"><style>.st0{fill:#eee}.st1{opacity:.43;fill:none;stroke:gray;stroke-width:.5;stroke-miterlimit:10;enable-background:new}.st3{fill:#d35400}.st5{fill:#d4145a}.st6{fill:#ffd28a}.st8{fill:none;stroke:#e6e6e6;stroke-width:.75;stroke-miterlimit:10}.st10{stroke:#d35400;stroke-width:.5}.st10,.st12,.st14{fill:none;stroke-miterlimit:10}.st12{stroke:#f2f2f2;stroke-width:.5}.st14{stroke:#f4b65b}.st15{fill:#4d4d4d}</style><path class="st0" d="M841.1 313.9c-9.8 71.3-58.7 115.2-80.9 135.1-2.6 2.3-10.5 9.2-22.4 18-.3.2-.5.4-.8.6-.9.7-1.9 1.4-2.8 2-31.8 22.9-87.8 55.8-149 56.7h-.2c-11.8-.1-23.7-1.4-35.6-4.2-28.8-6.6-46.6-19.2-72.1-22.8-1.7-.2-3.4-.4-5.2-.6-3.2-.3-6.6-.4-10.1-.4-4.6-.1-9.6.2-15 .9-2.2.3-4.3.6-6.3.9-30.1 5.4-41.2 19.6-72.7 23.2-4.3.5-8.5.7-12.6.8h-2.3c-17.9-.2-34.1-4.5-48.4-10.3-.1 0-.2-.1-.4-.1-13.9-5.6-26-12.4-36.3-18.3-12.1-6.7-26.2-16-41.1-27.3-.3-.2-.6-.4-.9-.7-62.5-47.4-137.1-131-119.3-220.5 12.4-62.4 64.9-95.1 138.9-147.2 4.1-2.9 9.3-6.5 15.2-10.5 46.3-30.9 145.4-87.8 265.8-74.9 23.6 2.6 68.2 7.4 101.1 26.8 14.1 8.3 25.9 19.4 33.1 34.1 18.7 38.7-9.6 74.3 12.1 97 28.2 29.5 87.9-18.8 133.1 10.8 47.6 31.3 36.3 121.6 35.1 130.9z"/><path class="st1" d="M617 40.9V467.8M261 89v379"/><path d="M251 474s-31-123-42-147-20-53-16-60 75-13 86-12 53 1 61 5 52 212 52 212l-141 2z" fill="#333"/><path class="st3" d="M348 264c1-7 8-13 16-19s9-15 7-23-7-15-3-23 12.3-8.3 18-11c17-8 15.4-33.7 19-39 2-3 9-13 26-15s31 1 38 9 8 10 10 14c0 0 11 1 14 5s10 13 5 29-10 27-7 33 15 13 17 16 8 6 9 19-8 34-8 34l-149-11s-4 2-7-2-5-16-5-16z"/><path fill="#f2f2f2" d="M397 261l6-1 64 7 3 1 4 5-3.4 187.6-61.6 1z"/><path class="st5" d="M462 457s-4.1-73.9-3-99c1-23 11-90 11-90s31 11 38 19 13 14 16 20 38 62 38 62l-21 49s-23.5-17.5-26.5-31.5-12-34-17-38c0 0-6 17-5 47S498 460 498 460s-32.5 2.5-34.5.5c-1-1-1.5-3.5-1.5-3.5z"/><path class="st6" d="M400.5 260.5S455 328 467 267c0 0-12-6-13-13 0 0 11-6 14-15s13-52 13-55-20-5-26-2c-6.3 3.2-11.5 21-20 21-9 0-14 0-17 4s-5 33-7 37-10.5 16.5-10.5 16.5z"/><path class="st3" d="M409 234s9 14 22 17c0 0-17-12-15-39l-7 22z"/><path d="M523 456s47-113 52-114 179-7 179 0-52 127-52 127l-304 3s-4-5-2-7 9-2 9-2l117-5 1-2z" fill="#d2d7d3"/><path class="st6" d="M434.7 427.5s32.7 5.6 41.7 3.7c0 0 18.6 4.7 18.6 8.4s-14.9 0-14.9 0 .9 9.4-4.1 11.4c-3.3 1.3-14-5.9-17-4s-28 7.7-28 7.7l3.7-27.2z"/><path class="st5" d="M397 261s-39 10-57 25-52 101-54 109-10 40-6 46 8 12 15 14 109 10 130 5 18-35 18-35l-86.7-17.7L345 405l33-61s-1.2 20.6-2 27c-1 8-11 33-11 40s-4 61-4 61h59s14.5-105 13-123c-1-12-16-70-36-88z"/><path class="st8" d="M576 336.8c23-1 119.2-5.3 174-1.8M521 453s25.4-61.4 40-94.8"/><path d="M244 476s-26.4-120.5-38.8-143.7c-12.4-23.2-18.9-60.9-18.9-60.9s-1.4-5.5 1.4-7.4" fill="none" stroke="#333" stroke-width=".75" stroke-miterlimit="10"/><path class="st10" d="M496.5 170.5c1.9 1.8 5.3 7.4 6 16 .9 10.8-5.7 22.3-13 24-1.2.3-2.1.2-3 1-3.7 3.3-1.1 16.1 6 20 4.9 2.7 8.3-.8 14 1 7 2.2 10.9 10.3 13 17"/><path d="M414.5 189.5c1.5 1.1 5.3 6 15 5 9.1-1 15.6-13.5 17-15" fill="none" stroke="#f7931e" stroke-width=".75" stroke-miterlimit="10"/><path class="st10" d="M458.5 178.5c-7 5-8.7 11.9-10 15-1.7 4.1-1.5 3.9-4 8-2.1 3.5-5 8.3-10 9-4 .6-7.4-1.7-9-3M430.5 135.5c-8 0-17.7 3.5-25 10-3.5 3.1-5.9 7.7-8 13-4.8 12.1-3 18-5 22-3 6.1-6 9-13 12-8.2 3.5-9 4-12 8-4.6 6.2-4.9 13.5-4 17 2 8 3 9 4 16 .4 2.6.1 10.8-6 16-4.5 3.9-10 4-12 4"/><path class="st12" d="M391.5 262.5l3.7 37.5c.2 1.6 1.1 2.9 2.6 3.6l12.7 5.9-5.8 10.3c-2 3.6-2.3 7.9-.8 11.7l25.6 61M476.5 269.5l10.2 30.7c.5 1.4 0 2.9-1.2 3.7l-8 6.6 7.7 8.8c2 2.6 2.5 6 1.3 9.1l-27 63.1"/><path d="M451.9 212.9c-.5 2.2-2 7.8-2.6 10.1-.2.6.2 1.2.7 1.4l3.4 1.1c.8.3 1.5-.3 1.5-1.1l-.8-11.3c0-.6-.5-1-1.1-1-.6-.1-1 .3-1.1.8z" fill="#f4b65b"/><path class="st14" d="M442.8 234.9s6.7 4 12.5 2.1M446.5 239.5s3.5.6 4.5.7"/><path class="st15" d="M736.8 468c-.9.7-1.9 1.4-2.8 2-31.8 22.9-87.9 55.7-149 56.5h-.2c-11.7-.1-23.4-1.4-35.2-4.2-28.9-6.7-46.8-19.3-72.4-22.9-1.7-.2-3.4-.4-5.2-.6-3.2-.3-6.6-.4-10.1-.4-4.6-.1-9.7.2-15 .9-2.2.3-4.3.6-6.3.9-30.3 5.3-41.4 19.5-73.1 23.1-4.3.5-8.5.7-12.7.8h-1.9c-17.9-.3-34-4.6-48.4-10.3-.1 0-.2-.1-.3-.1-13.9-5.6-26-12.5-36.3-18.3-12.1-6.8-26.1-16-41-27.3h509.9z"/><path class="st0" d="M713 83c-18.6 21.6-12.5 51-12 53 1.6 6.9 2.7 11.8 7 15 11.2 8.2 25.5-8.5 53-8 19.7.3 23.9 9.1 39 5 1.4-.4 19.5-5.5 25-20 7.3-19.3-12.1-44.1-31-55-23.9-13.8-61-13.3-81 10z"/><ellipse class="st15" cx="120.5" cy="495.5" rx="25.5" ry="19.5"/><circle class="st0" cx="80.5" cy="342.5" r="14.5"/><ellipse class="st0" cx="702.5" cy="26.5" rx="19.5" ry="14.5"/><circle class="st15" cx="276.5" cy="542.5" r="15.5"/></svg>